<svg width="1200" height="630" viewBox="0 0 1200 630" fill="none" xmlns="http://www.w3.org/2000/svg">
  <!-- Background Gradient -->
  <defs>
    <linearGradient id="bgGradient" x1="0%" y1="0%" x2="100%" y2="100%">
      <stop offset="0%" style="stop-color:#0f172a"/>
      <stop offset="50%" style="stop-color:#1e293b"/>
      <stop offset="100%" style="stop-color:#334155"/>
    </linearGradient>
    <radialGradient id="greenOrb" cx="50%" cy="50%" r="50%">
      <stop offset="0%" style="stop-color:rgba(34, 197, 94, 0.4)"/>
      <stop offset="100%" style="stop-color:transparent"/>
    </radialGradient>
    <radialGradient id="blueOrb" cx="50%" cy="50%" r="50%">
      <stop offset="0%" style="stop-color:rgba(59, 130, 246, 0.4)"/>
      <stop offset="100%" style="stop-color:transparent"/>
    </radialGradient>
    <linearGradient id="logoGradient" x1="0%" y1="0%" x2="100%" y2="100%">
      <stop offset="0%" style="stop-color:#22c55e"/>
      <stop offset="100%" style="stop-color:#16a34a"/>
    </linearGradient>
  </defs>

  <!-- Background -->
  <rect width="1200" height="630" fill="url(#bgGradient)"/>

  <!-- Grid Pattern -->
  <g opacity="0.03">
    <line x1="0" y1="0" x2="0" y2="630" stroke="white" stroke-width="1"/>
    <line x1="50" y1="0" x2="50" y2="630" stroke="white" stroke-width="1"/>
    <line x1="100" y1="0" x2="100" y2="630" stroke="white" stroke-width="1"/>
    <line x1="150" y1="0" x2="150" y2="630" stroke="white" stroke-width="1"/>
    <line x1="200" y1="0" x2="200" y2="630" stroke="white" stroke-width="1"/>
    <line x1="250" y1="0" x2="250" y2="630" stroke="white" stroke-width="1"/>
    <line x1="300" y1="0" x2="300" y2="630" stroke="white" stroke-width="1"/>
    <line x1="350" y1="0" x2="350" y2="630" stroke="white" stroke-width="1"/>
    <line x1="400" y1="0" x2="400" y2="630" stroke="white" stroke-width="1"/>
    <line x1="450" y1="0" x2="450" y2="630" stroke="white" stroke-width="1"/>
    <line x1="500" y1="0" x2="500" y2="630" stroke="white" stroke-width="1"/>
    <line x1="550" y1="0" x2="550" y2="630" stroke="white" stroke-width="1"/>
    <line x1="600" y1="0" x2="600" y2="630" stroke="white" stroke-width="1"/>
    <line x1="650" y1="0" x2="650" y2="630" stroke="white" stroke-width="1"/>
    <line x1="700" y1="0" x2="700" y2="630" stroke="white" stroke-width="1"/>
    <line x1="750" y1="0" x2="750" y2="630" stroke="white" stroke-width="1"/>
    <line x1="800" y1="0" x2="800" y2="630" stroke="white" stroke-width="1"/>
    <line x1="850" y1="0" x2="850" y2="630" stroke="white" stroke-width="1"/>
    <line x1="900" y1="0" x2="900" y2="630" stroke="white" stroke-width="1"/>
    <line x1="950" y1="0" x2="950" y2="630" stroke="white" stroke-width="1"/>
    <line x1="1000" y1="0" x2="1000" y2="630" stroke="white" stroke-width="1"/>
    <line x1="1050" y1="0" x2="1050" y2="630" stroke="white" stroke-width="1"/>
    <line x1="1100" y1="0" x2="1100" y2="630" stroke="white" stroke-width="1"/>
    <line x1="1150" y1="0" x2="1150" y2="630" stroke="white" stroke-width="1"/>
    <line x1="1200" y1="0" x2="1200" y2="630" stroke="white" stroke-width="1"/>
    <line x1="0" y1="50" x2="1200" y2="50" stroke="white" stroke-width="1"/>
    <line x1="0" y1="100" x2="1200" y2="100" stroke="white" stroke-width="1"/>
    <line x1="0" y1="150" x2="1200" y2="150" stroke="white" stroke-width="1"/>
    <line x1="0" y1="200" x2="1200" y2="200" stroke="white" stroke-width="1"/>
    <line x1="0" y1="250" x2="1200" y2="250" stroke="white" stroke-width="1"/>
    <line x1="0" y1="300" x2="1200" y2="300" stroke="white" stroke-width="1"/>
    <line x1="0" y1="350" x2="1200" y2="350" stroke="white" stroke-width="1"/>
    <line x1="0" y1="400" x2="1200" y2="400" stroke="white" stroke-width="1"/>
    <line x1="0" y1="450" x2="1200" y2="450" stroke="white" stroke-width="1"/>
    <line x1="0" y1="500" x2="1200" y2="500" stroke="white" stroke-width="1"/>
    <line x1="0" y1="550" x2="1200" y2="550" stroke="white" stroke-width="1"/>
    <line x1="0" y1="600" x2="1200" y2="600" stroke="white" stroke-width="1"/>
  </g>

  <!-- Gradient Orbs -->
  <ellipse cx="1100" cy="50" rx="300" ry="300" fill="url(#greenOrb)"/>
  <ellipse cx="100" cy="580" rx="250" ry="250" fill="url(#blueOrb)"/>

  <!-- Logo Container -->
  <rect x="560" y="140" width="80" height="80" rx="20" fill="url(#logoGradient)"/>
  
  <!-- Spreadsheet Icon -->
  <g transform="translate(575, 155)">
    <rect x="0" y="0" width="50" height="50" rx="4" stroke="white" stroke-width="2.5" fill="none"/>
    <line x1="0" y1="16.67" x2="50" y2="16.67" stroke="white" stroke-width="2"/>
    <line x1="0" y1="33.33" x2="50" y2="33.33" stroke="white" stroke-width="2"/>
    <line x1="16.67" y1="0" x2="16.67" y2="50" stroke="white" stroke-width="2"/>
    <line x1="33.33" y1="0" x2="33.33" y2="50" stroke="white" stroke-width="2"/>
  </g>

  <!-- Title -->
  <text x="600" y="290" font-family="system-ui, -apple-system, sans-serif" font-size="56" font-weight="800" fill="white" text-anchor="middle" letter-spacing="-1">
    SheetMaster
  </text>

  <!-- Subtitle -->
  <text x="600" y="350" font-family="system-ui, -apple-system, sans-serif" font-size="28" fill="rgba(255,255,255,0.7)" text-anchor="middle">
    Free Excel &amp; Google Sheets Formula Generators
  </text>

  <!-- Features Row -->
  <g transform="translate(600, 420)">
    <g transform="translate(-280, 0)">
      <rect x="-10" y="-15" width="140" height="30" rx="15" fill="rgba(34, 197, 94, 0.2)" stroke="rgba(34, 197, 94, 0.5)" stroke-width="1"/>
      <text font-family="system-ui" font-size="14" fill="#22c55e" text-anchor="middle" x="60" y="5">VLOOKUP</text>
    </g>
    <g transform="translate(-100, 0)">
      <rect x="-10" y="-15" width="100" height="30" rx="15" fill="rgba(59, 130, 246, 0.2)" stroke="rgba(59, 130, 246, 0.5)" stroke-width="1"/>
      <text font-family="system-ui" font-size="14" fill="#3b82f6" text-anchor="middle" x="40" y="5">IF</text>
    </g>
    <g transform="translate(40, 0)">
      <rect x="-10" y="-15" width="120" height="30" rx="15" fill="rgba(168, 85, 247, 0.2)" stroke="rgba(168, 85, 247, 0.5)" stroke-width="1"/>
      <text font-family="system-ui" font-size="14" fill="#a855f7" text-anchor="middle" x="50" y="5">SUMIF</text>
    </g>
    <g transform="translate(200, 0)">
      <rect x="-10" y="-15" width="120" height="30" rx="15" fill="rgba(249, 115, 22, 0.2)" stroke="rgba(249, 115, 22, 0.5)" stroke-width="1"/>
      <text font-family="system-ui" font-size="14" fill="#f97316" text-anchor="middle" x="50" y="5">20+ More</text>
    </g>
  </g>

  <!-- Domain Badge -->
  <g transform="translate(600, 520)">
    <rect x="-110" y="-20" width="220" height="40" rx="20" fill="rgba(255,255,255,0.1)" stroke="rgba(255,255,255,0.2)" stroke-width="1"/>
    <circle cx="-80" cy="0" r="5" fill="#22c55e"/>
    <text font-family="system-ui" font-size="16" fill="rgba(255,255,255,0.9)" text-anchor="middle" x="15" y="5">getsheetmaster.com</text>
  </g>
</svg>

